<svg xmlns="http://www.w3.org/2000/svg">
  <style>
    :root svg:not(:target) {
      display: none;
    }
  </style>

<svg id="cat_back" viewBox="0 0 50 53" fill="none" xmlns="http://www.w3.org/2000/svg">
<circle cx="25" cy="28" r="25" fill="#68B738"/>
<g clip-path="url(#clip0_94_6)">
<path d="M35.2034 0H35.008C34.6778 0.187081 34.415 0.473924 34.2571 0.819588C33.968 1.37738 33.7453 1.96735 33.5937 2.57732C33.5612 2.76073 33.4688 2.92811 33.331 3.05315C33.1932 3.17818 33.0179 3.25377 32.8326 3.26804C32.2658 3.36597 31.7288 3.59243 31.2626 3.93012C30.7965 4.26781 30.4135 4.7078 30.1429 5.21649C29.7708 5.87697 29.4526 6.5665 29.1914 7.27835C28.4611 9.17526 27.9006 11.134 27.2114 13.0464C26.8874 13.9175 26.872 13.9175 25.8949 13.9175C24.7274 13.9175 24.8097 13.7371 24.7943 15.0258C24.7943 15.433 24.9177 15.6392 25.3497 15.6186C25.4834 15.6186 25.684 15.5515 25.7354 15.7268C25.7869 15.9021 25.612 15.9794 25.5091 16.0825C24.8994 16.7029 24.1276 17.1388 23.2823 17.3402C22.3051 17.6031 21.3074 17.8093 20.356 18.1289C17.9131 18.9485 15.6554 20.0928 13.8966 22.0309C12.8681 23.2347 12.0445 24.6001 11.4589 26.0722C9.57143 30.5258 8.656 35.2165 7.94629 39.9536C7.612 42.1753 7.37543 44.4072 7.19543 46.6546C7.10286 47.7577 7 48.8763 7 50H24.1411C24.1696 49.7731 24.1283 49.543 24.0229 49.3402C23.858 48.9289 23.5901 48.5672 23.2451 48.29C22.9 48.0128 22.4895 47.8295 22.0531 47.7577C21.6931 47.6753 21.652 47.567 21.8731 47.2835C22.2338 46.801 22.5103 46.2607 22.6909 45.6856C23.5291 43.2062 23.8531 40.6186 24.2594 38.0567C24.4889 36.0999 25.0894 34.2051 26.0286 32.4742C26.7611 31.2002 27.7382 30.0842 28.9034 29.1907C29.3303 28.866 29.3457 28.866 29.4177 29.4175C29.4691 29.7835 29.4794 30.1598 29.5051 30.5309C29.6595 32.9662 29.6285 35.4097 29.4126 37.8402C29.2184 39.7242 29.1926 41.6217 29.3354 43.5103C29.5399 45.7029 29.9304 47.8739 30.5029 50H37.3429C37.2536 49.442 36.9973 48.9243 36.6078 48.5156C36.2184 48.1069 35.7143 47.8264 35.1623 47.7113C34.5177 47.6087 33.8587 47.6438 33.2286 47.8144C32.92 47.8866 32.7914 47.8144 32.7657 47.4794C32.5529 44.7505 32.7261 42.0051 33.28 39.3247C33.966 36.2304 34.4912 33.1025 34.8537 29.9536C34.9887 28.6819 35.3881 27.4528 36.0263 26.3454C36.6383 25.2526 37.1731 24.1186 37.7749 23.0206C38.0138 22.6214 38.1575 22.1723 38.195 21.7083C38.2325 21.2443 38.1626 20.7779 37.9909 20.3454C37.852 19.9794 37.7183 19.6082 37.5486 19.2577C37.0343 18.2526 36.52 17.2577 36.0469 16.2423C35.7949 15.7268 35.8514 15.6649 36.412 15.6495C37.2503 15.6495 37.2503 15.6495 37.2657 14.8041C37.2657 14.6907 37.2657 14.5773 37.2657 14.4639C37.2657 14.1082 37.132 13.9124 36.7514 13.9485C36.4943 13.9485 36.2371 13.9485 35.9697 13.9485C35.6149 13.9485 35.512 13.799 35.5994 13.433C35.7729 12.838 36.1142 12.306 36.5823 11.9009C37.0503 11.4958 37.6252 11.2349 38.2377 11.1495C39.3772 11.0505 40.5251 11.1252 41.6423 11.3711C41.7712 11.4118 41.9109 11.4001 42.0312 11.3383C42.1515 11.2766 42.2427 11.1699 42.2851 11.0412C42.4909 10.5258 42.7171 10.0103 42.9486 9.49484C43.001 9.40339 43.0242 9.29801 43.015 9.19293C43.0058 9.08785 42.9647 8.98812 42.8971 8.90722C41.2514 6.81443 39.4669 4.86082 37.0343 3.60825C36.9168 3.55754 36.8138 3.47814 36.7347 3.3773C36.6557 3.27646 36.6031 3.15738 36.5817 3.03093C36.444 2.29408 36.225 1.57487 35.9286 0.886598C35.7895 0.519904 35.5349 0.20865 35.2034 0V0Z" fill="black"/>
</g>
<defs>
<clipPath id="clip0_94_6">
<rect width="36" height="50" fill="white" transform="translate(7)"/>
</clipPath>
</defs>
</svg>

<svg id="cat_back-x1" viewBox="0 0 67 50" fill="none" xmlns="http://www.w3.org/2000/svg">
<circle cx="34" cy="25" r="25" fill="#68B738"/>
<g clip-path="url(#clip0_95_1)">
<path d="M61.5591 13.8784C62.1364 12.96 62.9036 12.1757 63.8091 11.5784C64.3091 11.2284 64.6091 11.2284 64.9091 11.8784C65.3091 12.8284 65.6591 13.8284 65.3591 14.8784C65.3045 15.0565 65.2942 15.2452 65.3291 15.4282C65.3639 15.6112 65.4429 15.7829 65.5591 15.9284C65.8591 16.3284 66.1091 16.7284 66.3591 17.0784C66.6994 17.5103 66.9201 18.0241 66.9991 18.5682C67.078 19.1123 67.0125 19.6676 66.8091 20.1784C66.6256 20.6743 66.5908 21.213 66.7091 21.7284C66.809 22.2234 66.809 22.7334 66.7091 23.2284C66.6687 23.5991 66.5187 23.9494 66.2782 24.2344C66.0377 24.5194 65.7177 24.7262 65.3591 24.8284C64.7196 24.9501 64.1488 25.3069 63.7591 25.8284C63.7119 25.9052 63.6457 25.9686 63.5669 26.0124C63.488 26.0562 63.3993 26.0789 63.3091 26.0784C62.7091 26.1784 61.2091 24.8284 61.2091 24.2284V23.9284C61.2591 22.1284 61.1591 21.9784 59.5091 21.2284C59.1638 21.1066 58.8544 20.9004 58.6091 20.6284C58.3091 20.2284 57.9091 20.2784 57.4591 20.4284C57.0091 20.5784 56.7591 20.8784 56.8091 21.3784C56.9599 22.5889 57.0101 23.8097 56.9591 25.0284C56.9624 25.1675 56.9966 25.3041 57.0591 25.4284C58.6091 27.6784 59.2091 30.3284 59.9591 32.8784C60.5591 34.8284 61.6591 35.8784 63.6591 36.0284C63.9792 36.054 64.2968 36.1041 64.6091 36.1784C65.02 36.2444 65.4017 36.4322 65.7048 36.7174C66.0078 37.0027 66.2183 37.3723 66.3091 37.7784C66.6591 38.8284 66.4591 39.0784 65.4091 39.0784H62.1591C61.7384 39.0997 61.3259 38.9562 61.0091 38.6784C60.5031 38.2514 59.9282 37.9132 59.3091 37.6784C58.6247 37.4258 58.0323 36.9728 57.6091 36.3784C57.0234 35.5602 56.3531 34.806 55.6091 34.1284C54.2091 32.6784 52.7091 31.2784 51.4091 29.7784C50.4195 28.7563 49.8486 27.4006 49.8091 25.9784C49.8091 25.5284 49.7091 25.3284 49.2091 25.5284C49.0594 25.6234 48.8864 25.6753 48.7091 25.6784C47.3091 25.6784 46.6091 26.5284 46.1091 27.7784C45.6591 28.8284 45.0591 29.8284 44.5091 30.8784C44.1972 31.5357 44.0269 32.2511 44.0091 32.9784C44.0091 34.1784 44.3091 34.5784 45.4091 34.9784C46.1091 35.2284 46.7591 35.4784 47.1091 36.1784C47.5091 36.9784 47.4091 37.1784 46.5591 37.2284H43.1591C42.9631 37.2478 42.766 37.2052 42.5955 37.1065C42.425 37.0078 42.2899 36.8581 42.2091 36.6784L41.3091 35.1784C41.0438 34.7871 40.874 34.3389 40.8132 33.87C40.7524 33.4011 40.8024 32.9245 40.9591 32.4784C41.1755 31.6102 41.1926 30.7042 41.0091 29.8284C40.8831 29.2185 40.8939 28.5882 41.0409 27.9829C41.1879 27.3777 41.4674 26.8126 41.8591 26.3284C42.1591 25.9784 42.1591 25.8284 41.6591 25.7284C39.6146 25.2941 37.6325 24.6054 35.7591 23.6784C35.7459 23.6784 35.7331 23.6732 35.7238 23.6638C35.7144 23.6544 35.7091 23.6417 35.7091 23.6284C34.1091 23.0284 33.8091 23.1284 33.3591 24.7784C32.9591 26.1784 32.5591 27.5784 32.2591 29.0284C31.9091 30.6284 32.3091 32.1284 32.8091 33.6284C33.0091 34.2284 33.6091 34.1784 34.0591 34.3284C35.0591 34.6284 35.9091 35.0284 36.3091 36.0784C36.6591 36.8784 36.6091 36.9784 35.7591 36.9784C34.9091 36.9784 34.0591 36.9284 33.1591 36.9784C32.3996 36.9922 31.6584 36.7451 31.0591 36.2784C28.6591 34.6784 27.9591 32.2284 27.7591 29.5784C27.6591 27.9284 26.7591 26.6284 25.7091 25.3784C25.5091 25.1284 25.3091 25.0284 25.0091 25.2284C23.9359 25.8202 22.8153 26.3219 21.6591 26.7284C19.2462 27.5804 17.1289 29.1077 15.5591 31.1284C14.9729 31.8659 14.5933 32.746 14.4591 33.6784C14.3091 34.5784 14.5591 34.9784 15.4591 35.2284C16.3591 35.4784 16.8091 35.9784 16.9091 36.9284C16.9591 37.3284 16.8091 37.5284 16.4091 37.5284H12.3591C12.2266 37.519 12.0982 37.4778 11.9851 37.4081C11.8719 37.3385 11.7772 37.2425 11.7091 37.1284C11.081 36.3508 10.7449 35.3779 10.7591 34.3784C10.7329 32.6509 10.8837 30.9252 11.2091 29.2284C11.2759 28.7203 11.4656 28.2361 11.7618 27.8178C12.0581 27.3996 12.4519 27.06 12.9091 26.8284C15.8591 25.4284 17.4091 22.7784 18.8091 20.0284C19.1091 19.4784 18.8591 19.3784 18.3591 19.4284C16.9598 19.6227 15.634 20.1737 14.5091 21.0284C13.0362 22.1029 11.6487 23.2897 10.3591 24.5784C8.98394 25.9753 7.16046 26.8427 5.20911 27.0284C1.55911 27.2284 -0.140885 25.1784 0.00911497 21.8784C0.0426462 20.7532 0.466939 19.6748 1.20912 18.8284C1.46713 18.4939 1.81898 18.2439 2.21975 18.1103C2.62052 17.9767 3.05201 17.9656 3.45912 18.0784C4.20912 18.2784 4.40911 18.6784 4.10911 19.4284C3.95911 19.7284 3.75911 19.9784 3.60911 20.2784C3.39342 20.5849 3.22488 20.922 3.10911 21.2784C2.55911 22.7784 3.30911 23.8284 4.85911 23.9784C6.50911 24.1284 7.85912 23.4284 9.10912 22.4284C10.6151 21.2226 11.9595 19.8277 13.1091 18.2784C13.9687 17.1471 15.0512 16.2041 16.2895 15.5075C17.5279 14.8109 18.8959 14.3756 20.3091 14.2284C21.4591 14.0784 22.4591 13.5784 23.5591 13.2784C25.6164 12.6512 27.7586 12.3476 29.9091 12.3784C30.9052 12.4199 31.8974 12.2317 32.8091 11.8284C35.2591 10.8284 37.8091 10.8284 40.3591 11.3284C42.3591 11.7284 44.3591 12.2284 46.3091 12.7284C47.4696 12.9447 48.6629 12.9106 49.8091 12.6284C52.0034 12.0722 54.248 11.7372 56.5091 11.6284C57.9904 11.5564 59.4667 11.8482 60.8091 12.4784C61.8091 12.9284 61.8091 12.9284 61.5591 13.8784Z" fill="black"/>
</g>
<defs>
<clipPath id="clip0_95_1">
<rect width="67" height="28" fill="white" transform="translate(0 11)"/>
</clipPath>
</defs>
</svg>

<svg id="green-leaf" viewBox="0 0 61 60" fill="none" xmlns="http://www.w3.org/2000/svg">
<rect x="0.5" width="60" height="60" fill="#68B738"/>
<g clip-path="url(#clip0_95_18)">
<path d="M43.3438 16.767C43.2434 16.317 42.8647 16 42.4325 16C42.4306 16 42.4288 16 42.4269 16C37.4891 16.033 25.4816 16.916 20.6337 24.38C18.1156 28.258 17.8991 33.293 19.9897 39.345C20.0056 39.392 20.0384 39.424 20.06 39.467C19.3128 41.44 19.0231 42.753 19.0156 42.79C18.9069 43.33 19.2303 43.862 19.7366 43.978C19.8022 43.993 19.8678 44 19.9334 44C20.3656 44 20.7547 43.679 20.8494 43.21C20.8691 43.108 23.2578 32.837 31.7028 26.832C32.1341 26.526 32.2503 25.905 31.9625 25.445C31.6747 24.985 31.0934 24.86 30.6622 25.168C25.8734 28.573 22.9241 33.176 21.1897 36.824C19.9484 32.246 20.2737 28.447 22.1759 25.519C25.9194 19.755 34.7984 18.365 40.1581 18.071C39.005 19.872 37.745 23.174 37.745 29C37.745 32.12 36.9153 34.522 35.2803 36.14C32.6591 38.731 28.4009 38.974 25.2866 38.724C24.7691 38.679 24.32 39.095 24.2806 39.646C24.2412 40.196 24.6284 40.676 25.1441 40.718C25.7675 40.769 26.4331 40.8 27.125 40.8C30.2956 40.8 33.9941 40.137 36.5544 37.606C38.5888 35.595 39.62 32.7 39.62 29.001C39.62 19.902 42.8356 17.905 42.8516 17.896C43.2416 17.687 43.4459 17.219 43.3438 16.767Z" fill="white"/>
</g>
<defs>
<clipPath id="clip0_95_18">
<rect width="30" height="32" fill="white" transform="translate(15.5 14)"/>
</clipPath>
</defs>
</svg>

<svg id="powder" viewBox="0 0 61 60" fill="none" xmlns="http://www.w3.org/2000/svg">
<rect x="0.5" width="60" height="60" fill="#68B738"/>
<path d="M28.875 16C27.2437 16 25.975 17.3594 25.975 19.0812C25.975 20.8031 27.2437 22.1625 28.875 22.1625C30.5063 22.1625 31.775 20.8031 31.775 19.0812C31.775 17.3594 30.5063 16 28.875 16ZM28.875 17.1781C29.8719 17.1781 30.5969 18.0209 30.5969 19.0812C30.5969 20.0781 29.8084 20.9844 28.875 20.9844C27.8781 20.9844 27.1531 20.1416 27.1531 19.0812C27.1531 18.0844 27.9325 17.1781 28.875 17.1781ZM18 40.7406C18 41.9188 18.4078 42.9156 19.3594 43.7313C20.3563 44.5831 21.5344 44.5106 21.5344 44.5106H40.5656C41.345 44.5106 42.3781 44.13 43.1937 43.0606C44.0366 42.0638 43.9822 40.7044 43.9822 40.7044V23.4856C43.9822 23.0506 43.8734 22.8875 43.2391 22.8875C42.6047 22.8875 42.5503 23.1594 42.5503 23.4766V40.6953C42.5322 40.9944 42.4778 41.7828 41.8072 42.4172C41.0731 43.0425 40.3572 42.9609 40.3572 42.9609C40.3572 42.9609 22.2322 42.9609 21.3259 42.9338C20.9816 42.8703 20.4197 42.7434 19.8759 42.0275C19.3684 41.3025 19.4681 40.3962 19.4681 40.3962V23.1775C19.4681 22.7153 19.2325 22.5431 18.7431 22.5431C18.2538 22.5431 18 22.7153 18 23.1231V40.7406ZM34.3125 24.4281C33.225 24.6637 32.1375 24.8088 30.0531 26.7844C27.9688 28.7781 26.4281 28.6875 24.8875 28.5969C23.3469 28.5063 21.7156 27.0563 21.4438 26.6938C21.1084 26.3403 20.5375 26.5759 20.3562 26.8116C20.2022 27.0472 20.2022 27.455 20.465 27.8084C21.7338 28.9866 22.9119 29.8928 25.1775 30.0741C27.4431 30.2916 29.6181 29.2675 31.0681 27.8084C32.5181 26.3584 33.2431 26.0866 34.3306 25.9053C36.9587 25.4884 38.4994 26.5216 39.4056 27.1741C40.4025 28.2616 40.6744 27.9534 40.9462 27.6453C41.49 26.9294 40.7197 26.3766 39.8588 25.7422C38.0463 24.5641 36.3244 24.1109 34.3306 24.4734L34.3125 24.4281ZM25.25 31.5875C24.0719 31.5875 23.1656 32.5844 23.1656 33.8531C23.1656 35.1219 24.0719 36.1188 25.25 36.1188C26.4281 36.1188 27.3344 35.1219 27.3344 33.8531C27.3344 32.5844 26.4281 31.5875 25.25 31.5875ZM37.0312 32.3669C35.4906 32.3669 34.2219 33.7262 34.2219 35.3575C34.2219 36.9888 35.4906 38.3481 37.0312 38.3481C38.5719 38.3481 39.8406 36.9888 39.8406 35.3575C39.8406 33.7262 38.5719 32.3669 37.0312 32.3669ZM37.0312 33.8169C37.8288 33.8169 38.4813 34.5147 38.4813 35.3575C38.4813 36.2184 37.8288 36.8981 37.0312 36.8981C36.2337 36.8981 35.5812 36.2003 35.5812 35.3575C35.5812 34.4966 36.2337 33.8169 37.0312 33.8169Z" fill="white"/>
</svg>

<svg id="cafe" viewBox="0 0 61 60" fill="none" xmlns="http://www.w3.org/2000/svg">
<rect x="0.5" width="60" height="60" fill="#68B738"/>
<path fill-rule="evenodd" clip-rule="evenodd" d="M36.6173 15.0761C36.991 14.9214 37.4211 15.0069 37.7071 15.2929C38.6156 16.2014 39.8038 18.1706 40.7659 21.2108C41.7373 24.2804 42.5 28.5081 42.5 34C42.5 34.5523 42.0523 35 41.5 35H38V44C38 44.5523 37.5523 45 37 45C36.4477 45 36 44.5523 36 44V16C36 15.5956 36.2436 15.2309 36.6173 15.0761ZM38 33H40.4912C40.4053 28.1836 39.7051 24.4875 38.8591 21.8142C38.5807 20.9346 38.2885 20.1715 38 19.519V33Z" fill="white"/>
<path fill-rule="evenodd" clip-rule="evenodd" d="M24 15C24.5523 15 25 15.4477 25 16V44C25 44.5523 24.5523 45 24 45C23.4477 45 23 44.5523 23 44V16C23 15.4477 23.4477 15 24 15Z" fill="white"/>
<path fill-rule="evenodd" clip-rule="evenodd" d="M19.5 15C20.0523 15 20.5 15.4477 20.5 16V21.5C20.5 22.0569 20.692 22.8152 21.2009 23.4166C21.68 23.9828 22.5145 24.5 23.9999 24.5C24.5522 24.5 24.9999 24.9477 24.9999 25.5C24.9999 26.0523 24.5522 26.5 23.9999 26.5C21.9855 26.5 20.57 25.7672 19.6741 24.7084C18.808 23.6848 18.5 22.4431 18.5 21.5V16C18.5 15.4477 18.9477 15 19.5 15Z" fill="white"/>
<path fill-rule="evenodd" clip-rule="evenodd" d="M28.5 15C27.9477 15 27.5 15.4477 27.5 16V21.5C27.5 22.0569 27.308 22.8152 26.7991 23.4166C26.32 23.9828 25.4854 24.5 23.9999 24.5C23.4476 24.5 23.0001 24.9477 23.0001 25.5C23.0001 26.0523 23.4476 26.5 23.9999 26.5C26.0144 26.5 27.43 25.7672 28.3259 24.7084C29.192 23.6848 29.5 22.4431 29.5 21.5V16C29.5 15.4477 29.0523 15 28.5 15Z" fill="white"/>
</svg>

<svg id="watch" viewBox="0 0 61 60" fill="none" xmlns="http://www.w3.org/2000/svg">
<rect x="0.5" width="60" height="60" fill="#68B738"/>
<path d="M23.538 15C22.475 15 22.475 16.5831 23.538 16.5831H30.1815V18.1873C23.3786 18.62 18 24.4142 18 31.4854C18 35.4959 19.7432 39.1159 22.4963 41.5539C22.9746 41.976 23.0384 42.7254 22.6026 43.1897L21.0719 44.7412C20.3279 45.4272 21.4333 46.4931 22.103 45.7438L24.1014 43.7069C24.4521 43.3692 24.973 43.2847 25.4088 43.4958C27.1274 44.3397 29.0169 44.784 30.9341 44.795C32.8513 44.8059 34.7459 44.3833 36.4742 43.5591C36.8993 43.348 37.4308 43.4325 37.771 43.7702L39.7055 45.7438C40.3858 46.377 41.3638 45.4272 40.7472 44.7412L39.3016 43.2636C38.8552 42.8098 38.919 42.0605 39.4079 41.6277C40.8584 40.3585 42.0186 38.7959 42.8106 37.0447C43.6026 35.2936 44.0081 33.3944 43.9999 31.4748C43.9999 24.4036 38.5894 18.5989 31.7759 18.1873V16.5831H38.4194C39.4823 16.5831 39.4823 15 38.4194 15H23.538ZM19.435 31.4748C19.435 24.9419 24.6116 19.6543 30.9999 19.6543C37.3777 19.6543 42.5543 24.9419 42.5543 31.4748C42.5543 38.0183 37.3777 43.3164 30.9999 43.3164C24.6222 43.3164 19.435 38.0183 19.435 31.4748ZM30.1921 23.3799C30.1921 22.2823 31.8503 22.2823 31.8503 23.3799V32.0131C31.8503 32.237 31.7607 32.4517 31.6012 32.6101C31.4418 32.7684 31.2255 32.8574 30.9999 32.8574C30.7875 32.8574 30.5836 32.7743 30.4324 32.6262C30.2812 32.478 30.1949 32.2767 30.1921 32.0658V23.3799ZM25.2175 25.9973C25.5247 25.9973 25.8194 25.8761 26.0367 25.6603C26.254 25.4446 26.3761 25.152 26.3761 24.8469C26.3761 24.5418 26.254 24.2492 26.0367 24.0334C25.8194 23.8177 25.5247 23.6965 25.2175 23.6965C24.9307 23.7239 24.6645 23.8563 24.4707 24.0681C24.277 24.2798 24.1697 24.5556 24.1697 24.8416C24.1697 25.1277 24.277 25.4034 24.4707 25.6152C24.6645 25.8269 24.9307 25.9593 25.2175 25.9867V25.9973ZM36.7718 25.9973C37.0791 25.9973 37.3738 25.8761 37.5911 25.6603C37.8083 25.4446 37.9304 25.152 37.9304 24.8469C37.9304 24.5418 37.8083 24.2492 37.5911 24.0334C37.3738 23.8177 37.0791 23.6965 36.7718 23.6965C36.485 23.7239 36.2188 23.8563 36.0251 24.0681C35.8313 24.2798 35.724 24.5556 35.724 24.8416C35.724 25.1277 35.8313 25.4034 36.0251 25.6152C36.2188 25.8269 36.485 25.9593 36.7718 25.9867V25.9973ZM26.3761 38.5882C26.3761 40.1185 24.0588 40.1185 24.0588 38.5882C24.0588 37.0579 26.3761 37.0579 26.3761 38.5882ZM30.9999 42.0288C31.1607 42.0441 31.3229 42.0259 31.4762 41.9754C31.6294 41.9248 31.7703 41.843 31.8899 41.7352C32.0094 41.6273 32.1049 41.4959 32.1703 41.3493C32.2356 41.2026 32.2694 41.044 32.2694 40.8837C32.2694 40.7233 32.2356 40.5648 32.1703 40.4181C32.1049 40.2715 32.0094 40.14 31.8899 40.0322C31.7703 39.9244 31.6294 39.8426 31.4762 39.792C31.3229 39.7414 31.1607 39.7232 30.9999 39.7386C30.7132 39.7659 30.4469 39.8984 30.2532 40.1101C30.0595 40.3219 29.9522 40.5976 29.9522 40.8837C29.9522 41.1697 30.0595 41.4455 30.2532 41.6572C30.4469 41.869 30.7132 42.0014 30.9999 42.0288ZM22.9109 31.6437C22.9263 31.8033 22.908 31.9643 22.857 32.1165C22.8061 32.2687 22.7237 32.4086 22.6151 32.5273C22.5065 32.646 22.3741 32.7408 22.2264 32.8057C22.0788 32.8706 21.919 32.9041 21.7575 32.9041C21.596 32.9041 21.4363 32.8706 21.2886 32.8057C21.141 32.7408 21.0086 32.646 20.9 32.5273C20.7914 32.4086 20.709 32.2687 20.658 32.1165C20.6071 31.9643 20.5888 31.8033 20.6042 31.6437C20.6318 31.3589 20.7652 31.0946 20.9785 30.9023C21.1917 30.7099 21.4695 30.6033 21.7575 30.6033C22.0456 30.6033 22.3234 30.7099 22.5366 30.9023C22.7499 31.0946 22.8833 31.3589 22.9109 31.6437ZM40.237 32.794C40.3978 32.8094 40.56 32.7912 40.7132 32.7406C40.8665 32.6901 41.0074 32.6082 41.127 32.5004C41.2465 32.3926 41.342 32.2611 41.4074 32.1145C41.4727 31.9679 41.5065 31.8093 41.5065 31.6489C41.5065 31.4886 41.4727 31.33 41.4074 31.1834C41.342 31.0367 41.2465 30.9053 41.127 30.7975C41.0074 30.6896 40.8665 30.6078 40.7132 30.5573C40.56 30.5067 40.3978 30.4885 40.237 30.5038C39.9502 30.5312 39.684 30.6637 39.4903 30.8754C39.2966 31.0871 39.1892 31.3629 39.1892 31.6489C39.1892 31.935 39.2966 32.2108 39.4903 32.4225C39.684 32.6342 39.9502 32.7667 40.237 32.794ZM37.9304 38.5987C37.9304 40.1185 35.6132 40.1185 35.6132 38.5882C35.6132 37.0579 37.9304 37.0579 37.9304 38.5882V38.5987Z" fill="white"/>
</svg>

<svg id="arrow-right" viewBox="0 0 24 12" fill="none" xmlns="http://www.w3.org/2000/svg">
<line y1="6" x2="18" y2="6" stroke="black" stroke-width="2"/>
<path d="M24 6L17.25 11.1962L17.25 0.803848L24 6Z" fill="black"/>
</svg>

<svg id="slider-toggle" viewBox="0 0 40 40" fill="none" xmlns="http://www.w3.org/2000/svg">
<rect x="1" y="1" width="38" height="38" rx="19" fill="white"/>
<path d="M16 11L8 20L16 29V11Z" fill="#666666"/>
<path d="M32 20L24 11V29L32 20Z" fill="#666666"/>
<rect x="1" y="1" width="38" height="38" rx="19" stroke="#666666" stroke-width="2"/>
</svg>


<svg id="vkontakte" viewBox="0 0 28 17" fill="none" xmlns="http://www.w3.org/2000/svg">
<path d="M0.5 2.33876C0.5 1.48373 1.0151 1.02268 2.04531 0.955621L6.01515 0.980769C6.28158 0.980769 6.45921 1.10651 6.54802 1.35799C6.95655 2.61538 7.41392 3.70094 7.92014 4.61465C8.42637 5.52835 9.08801 6.58038 9.90507 7.77071C9.97611 7.9216 10.0916 7.99704 10.2514 7.99704C10.3758 7.99704 10.4735 7.93836 10.5445 7.82101L10.6244 7.54438L10.6511 3.19379C10.6511 2.89201 10.5756 2.69083 10.4246 2.59024C10.2736 2.48965 9.99388 2.4142 9.58535 2.36391C9.26563 2.31361 9.10577 2.12919 9.10577 1.81065C9.10577 1.74359 9.11465 1.69329 9.13241 1.65976C9.50542 0.57002 10.5711 0.0251479 12.3296 0.0251479L13.8216 0C14.4966 0 15.0561 0.15927 15.5001 0.477811C15.9442 0.796351 16.1662 1.29931 16.1662 1.98669V7.69527C16.2906 7.77909 16.406 7.82101 16.5126 7.82101C16.779 7.82101 17.0099 7.67012 17.2053 7.36834C19.1592 4.78649 20.216 3.05966 20.3759 2.18787C20.3759 2.1711 20.3936 2.12919 20.4291 2.06213C20.5535 1.81065 20.7577 1.5927 21.0419 1.40828C21.3261 1.22387 21.5748 1.09813 21.788 1.03107C21.859 0.997535 21.9389 0.980769 22.0277 0.980769H26.1574L26.4239 1.00592C26.7791 1.00592 27.0544 1.16519 27.2498 1.48373C27.3209 1.58432 27.3697 1.69329 27.3964 1.81065C27.423 1.92801 27.4408 2.04536 27.4496 2.16272C27.4585 2.28008 27.463 2.34714 27.463 2.36391V2.53994C27.3386 3.22732 27.0233 3.9608 26.5171 4.74038C26.0109 5.51997 25.367 6.36243 24.5855 7.26775C23.804 8.17308 23.3155 8.76825 23.1201 9.05326C22.9603 9.25444 22.8803 9.43886 22.8803 9.60651C22.8803 9.74063 22.9514 9.89152 23.0935 10.0592L26.9834 14.6864C27.1965 14.9546 27.3031 15.248 27.3031 15.5666C27.3031 15.9522 27.1432 16.2707 26.8235 16.5222C26.5038 16.7737 26.1219 16.9162 25.6779 16.9497L25.2249 16.9749H21.1752C21.1574 16.9749 21.1219 16.979 21.0686 16.9874C21.0153 16.9958 20.9798 17 20.962 17C20.5712 17 20.2071 16.8407 19.8696 16.5222C19.7453 16.3881 18.9105 15.3989 17.3652 13.5547C17.2764 13.4374 17.152 13.3284 16.9922 13.2278C16.9211 13.4961 16.8279 13.8817 16.7124 14.3846C16.597 14.8876 16.5126 15.248 16.4593 15.466L16.3794 15.8935C16.2018 16.4803 15.8287 16.8323 15.2604 16.9497L14.8874 16.9749H12.2763C10.8021 16.9749 9.33224 16.3378 7.86686 15.0636C6.40148 13.7894 5.08264 12.1423 3.91034 10.122C2.73803 8.10182 1.64566 5.75049 0.633216 3.06805C0.544405 2.8501 0.5 2.607 0.5 2.33876ZM16.5126 8.85207C16.1396 8.85207 15.8021 8.75567 15.5001 8.56287C15.1982 8.37007 15.0472 8.10602 15.0472 7.77071V1.98669C15.0472 1.65138 14.9584 1.41248 14.7808 1.26997C14.6032 1.12747 14.2923 1.05621 13.8483 1.05621L12.3296 1.10651C11.5658 1.10651 10.9886 1.23225 10.5978 1.48373C11.3793 1.8358 11.7701 2.40582 11.7701 3.19379V7.61982C11.7346 8.03895 11.5569 8.38683 11.2372 8.66346C10.9175 8.94009 10.5623 9.0784 10.1715 9.0784C9.63863 9.0784 9.2301 8.83531 8.94591 8.34911C7.56046 6.37081 6.53025 4.4931 5.85529 2.71598L5.6155 2.06213L2.07195 2.03698C1.84104 2.03698 1.71227 2.04956 1.68562 2.0747C1.65898 2.09985 1.64566 2.1711 1.64566 2.28846C1.64566 2.43935 1.66342 2.59862 1.69895 2.76627L2.25845 4.17456C3.75048 7.81262 5.37127 10.6795 7.12085 12.7751C8.87042 14.8708 10.5889 15.9186 12.2763 15.9186H14.9406C15.0472 15.9186 15.1271 15.8893 15.1804 15.8306C15.2337 15.7719 15.2781 15.6588 15.3136 15.4911L15.3669 15.2396L15.8732 13.0266C16.0152 12.7249 16.1396 12.5237 16.2462 12.4231C16.4415 12.2387 16.6725 12.1465 16.9389 12.1465C17.3652 12.1465 17.8003 12.3895 18.2444 12.8757L20.5091 15.5917C20.6512 15.8097 20.8022 15.9186 20.962 15.9186H25.3581C25.891 15.9186 26.1574 15.7929 26.1574 15.5414C26.1574 15.4576 26.1308 15.3738 26.0775 15.2899L22.2142 10.7382C21.9123 10.3861 21.7613 10.0089 21.7613 9.60651C21.7613 9.20414 21.9034 8.81854 22.1876 8.4497C22.4185 8.1144 22.867 7.55695 23.5331 6.77737C24.1992 5.99778 24.7809 5.26849 25.2782 4.5895C25.7756 3.9105 26.1042 3.29438 26.264 2.74112L26.3439 2.4142C26.3262 2.38067 26.3173 2.32618 26.3173 2.25074C26.3173 2.1753 26.3084 2.11243 26.2907 2.06213H22.1077C21.8412 2.16272 21.6281 2.31361 21.4682 2.51479L21.3084 2.9926C20.8643 4.14941 19.7009 5.93491 17.8181 8.34911C17.4451 8.68442 17.0099 8.85207 16.5126 8.85207Z" fill="#666666"/>
</svg>


<svg id="telegram" viewBox="0 0 29 22" fill="none" xmlns="http://www.w3.org/2000/svg">
<path fill-rule="evenodd" clip-rule="evenodd" d="M23.9608 3.15291C24.1393 3.30222 24.2255 3.5349 24.1872 3.76448L21.5611 19.5214C21.5244 19.7411 21.3789 19.9273 21.1745 20.0159C20.97 20.1045 20.7346 20.0833 20.5493 19.9597L12.6708 14.7074C12.5177 14.6054 12.4145 14.4437 12.3862 14.2619C12.358 14.08 12.4074 13.8947 12.5223 13.751L15.133 10.4877L10.773 13.3944C10.577 13.525 10.326 13.5407 10.1152 13.4353L4.86293 10.8092C4.62769 10.6915 4.48535 10.4449 4.5012 10.1824C4.51705 9.91983 4.68804 9.6921 4.93573 9.60364L23.3188 3.03826C23.538 2.95998 23.7822 3.00359 23.9608 3.15291ZM6.82626 10.3228L10.3617 12.0905L17.9231 7.0495C18.1925 6.86994 18.5525 6.91349 18.7712 7.1521C18.99 7.3907 19.0022 7.75314 18.8 8.00591L13.995 14.0121L20.4328 18.3039L22.7083 4.65058L6.82626 10.3228Z" fill="#666666"/>
</svg>


<svg id="youtube" viewBox="0 0 29 22" fill="none" xmlns="http://www.w3.org/2000/svg">
<path d="M18.3509 10.7927L13.1145 7.30184C13.0159 7.23691 12.9016 7.19985 12.7837 7.19459C12.6657 7.18934 12.5486 7.21608 12.4446 7.27198C12.3406 7.32789 12.2537 7.41087 12.193 7.51215C12.1324 7.61343 12.1002 7.72924 12.1 7.84729V14.8291C12.1001 14.9481 12.1327 15.0648 12.1942 15.1667C12.2557 15.2686 12.3438 15.3518 12.4491 15.4073C12.5524 15.4631 12.6691 15.4895 12.7864 15.4837C12.9037 15.478 13.0172 15.4402 13.1145 15.3746L18.3509 11.8837C18.4409 11.8239 18.5148 11.7429 18.5658 11.6477C18.6169 11.5526 18.6436 11.4462 18.6436 11.3382C18.6436 11.2302 18.6169 11.1239 18.5658 11.0287C18.5148 10.9335 18.4409 10.8525 18.3509 10.7927ZM13.4091 13.6073V9.06911L16.8127 11.3382L13.4091 13.6073ZM25.8891 5.04366C25.7942 4.67547 25.6131 4.33511 25.3609 4.05061C25.1086 3.76611 24.7924 3.54561 24.4382 3.40729C20.7182 1.9782 14.7509 2.00002 14.5 2.00002C14.2491 2.00002 8.28182 1.9782 4.56182 3.40729C4.20764 3.54561 3.8914 3.76611 3.63914 4.05061C3.38689 4.33511 3.20584 4.67547 3.11091 5.04366C2.82727 6.11275 2.5 8.07638 2.5 11.3382C2.5 14.6 2.82727 16.5637 3.11091 17.6327C3.20584 18.0009 3.38689 18.3413 3.63914 18.6258C3.8914 18.9103 4.20764 19.1308 4.56182 19.2691C8.28182 20.6982 14.2491 20.6764 14.5 20.6764H14.5764C15.3291 20.6764 20.8927 20.6327 24.4382 19.2691C24.7924 19.1308 25.1086 18.9103 25.3609 18.6258C25.6131 18.3413 25.7942 18.0009 25.8891 17.6327C26.1727 16.5637 26.5 14.6 26.5 11.3382C26.5 8.07638 26.1727 6.11275 25.8891 5.04366ZM24.6236 17.3055C24.5807 17.472 24.499 17.6259 24.3853 17.7548C24.2715 17.8838 24.1289 17.984 23.9691 18.0473C20.4782 19.3891 14.5655 19.3673 14.5 19.3673C14.4345 19.3673 8.52182 19.3891 5.03091 18.0473C4.87107 17.984 4.72846 17.8838 4.61471 17.7548C4.50096 17.6259 4.41929 17.472 4.37636 17.3055C4.11455 16.3018 3.80909 14.4582 3.80909 11.3382C3.80909 8.2182 4.11455 6.37457 4.37636 5.37093C4.41929 5.20445 4.50096 5.05047 4.61471 4.92156C4.72846 4.79264 4.87107 4.69243 5.03091 4.62911C8.52182 3.28729 14.4345 3.30911 14.5 3.30911C14.5655 3.30911 20.4782 3.28729 23.9691 4.62911C24.1289 4.69243 24.2715 4.79264 24.3853 4.92156C24.499 5.05047 24.5807 5.20445 24.6236 5.37093C24.8855 6.37457 25.1909 8.2182 25.1909 11.3382C25.1909 14.4582 24.8855 16.3018 24.6236 17.3055Z" fill="#666666"/>
</svg>

<svg id="cat-energy" viewBox="0 0 101 18" fill="none" xmlns="http://www.w3.org/2000/svg">
<g clip-path="url(#clip0_135_3354)">
<path d="M1.26449 16.5385C0.36955 15.2762 -0.0747041 13.7627 1.02073e-05 12.2308V5.84615C-0.108365 4.29774 0.308071 2.75746 1.18546 1.46154C2.05478 0.461538 3.39829 0 5.37403 0C7.34978 0 8.61425 0.461538 9.40455 1.30769C10.2626 2.37941 10.6846 3.72136 10.59 5.07692V6.61539H6.71754V4.84615C6.74881 4.32289 6.66808 3.799 6.48045 3.30769C6.38016 3.10938 6.2212 2.9448 6.02403 2.83513C5.82686 2.72547 5.60049 2.67572 5.37403 2.69231C4.82082 2.69231 4.42568 2.84615 4.26762 3.23077C4.08883 3.77733 4.00862 4.34988 4.03053 4.92308V13.1538C3.98879 13.71 4.0978 14.267 4.34665 14.7692C4.5047 15.1538 4.89985 15.3077 5.45306 15.3077C6.00627 15.3077 6.32239 15.1538 6.48045 14.7692C6.66013 14.2494 6.74049 13.7019 6.71754 13.1538V11.3077H10.59V12.8462C10.6704 14.2238 10.2508 15.5852 9.40455 16.6923C8.61425 17.6154 7.27075 18.0769 5.37403 18.0769C3.47732 18 2.05478 17.5385 1.26449 16.5385Z" fill="#111111"/>
<path d="M15.2527 0.23077H19.7574L23.0767 17.7692H19.4413L18.8091 14.0769H16.2011L15.5689 17.7692H11.8545L15.2527 0.23077ZM18.493 11.7692L17.5446 4.92308L16.5963 11.7692H18.493Z" fill="#111111"/>
<path d="M25.8427 3.15385H23.1557V0.23077H32.5602V3.07692H29.8732V17.7692H25.8427V3.15385Z" fill="#111111"/>
<path d="M39.752 0.23077H46.7066V2.07692H42.2019V7.84615H45.8372V9.61539H42.2019V16.0769H46.7066V17.8462H39.6729V0.23077H39.752Z" fill="#111111"/>
<path d="M48.7613 0.23077H50.5L55.6369 11.8462V0.23077H57.6917V17.7692H56.1111L50.8951 5.76923V17.7692H48.7613V0.23077Z" fill="#111111"/>
<path d="M60.0626 0.23077H67.0172V2.07692H62.5125V7.84615H66.1479V9.61539H62.5125V16.0769H67.0172V17.8462H60.0626V0.23077Z" fill="#111111"/>
<path d="M69.072 0.23077H72.7074C74.1375 0.134618 75.5587 0.514353 76.7379 1.30769C77.6072 2 78.0024 3.23077 78.0024 4.84616C78.0024 7.07692 77.2911 8.46154 75.7895 8.92308L78.3185 17.6923H75.8686L73.4977 9.46154H71.5219V17.6923H68.993V0.23077H69.072ZM72.5493 7.76923C73.364 7.83458 74.1761 7.61652 74.8412 7.15385C75.3154 6.76923 75.5524 6 75.5524 4.84616C75.5743 4.27296 75.4941 3.7004 75.3154 3.15385C75.1375 2.76166 74.832 2.4373 74.446 2.23077C73.9017 1.98934 73.3042 1.8836 72.7074 1.92308H71.601V7.69231H72.5493V7.76923Z" fill="#111111"/>
<path d="M81.1635 16.4615C80.342 15.1166 79.9564 13.5617 80.0571 12V6.15384C80.0376 5.03911 80.1705 3.9268 80.4522 2.84615C80.7167 2.03863 81.2437 1.33668 81.9538 0.846152C82.8362 0.337748 83.8542 0.0967294 84.8779 0.153844C86.5375 0.153844 87.723 0.53846 88.4343 1.38461C89.2524 2.50191 89.6438 3.86237 89.5407 5.23077V5.84615H87.1698V5.30769C87.1734 4.66346 87.1205 4.0201 87.0117 3.38461C86.9451 2.98303 86.7178 2.62348 86.3795 2.38461C85.9353 2.10082 85.4081 1.96579 84.8779 2C84.3113 1.96466 83.7504 2.12843 83.2973 2.46154C83.1114 2.61401 82.9595 2.80181 82.8508 3.01344C82.742 3.22507 82.6789 3.45608 82.6651 3.69231C82.5609 4.37999 82.5081 5.07411 82.507 5.76923V12.3077C82.4488 13.3038 82.6105 14.3006 82.9812 15.2308C83.2973 15.8462 83.9296 16.0769 84.8779 16.0769C85.2524 16.1223 85.6322 16.0589 85.9697 15.8947C86.3072 15.7304 86.5873 15.4727 86.7746 15.1538C87.1922 14.1811 87.3812 13.1299 87.3278 12.0769V10.8462H85.036V9.07692H89.6197V17.7692H88.0391L87.802 15.7692C87.5948 16.4395 87.1634 17.0231 86.5763 17.4273C85.9892 17.8315 85.2801 18.0331 84.5618 18C83.9088 18.0374 83.2565 17.9164 82.6633 17.6479C82.0702 17.3794 81.5549 16.9717 81.1635 16.4615Z" fill="#111111"/>
<path d="M94.6776 11.6154L90.8052 0.30769H93.1761L95.9421 8.76923L98.6291 0.30769H101L97.1275 11.6154V17.7692H94.7566V11.6154H94.6776Z" fill="#111111"/>
</g>
<defs>
<clipPath id="clip0_135_3354">
<rect width="101" height="18" fill="white"/>
</clipPath>
</defs>
</svg>


</svg>
